<svg data-v-423bf9ae="" xmlns="http://www.w3.org/2000/svg" viewBox="0 0 329 91" class="iconLeftSlogan"><!----><!----><!----><g data-v-423bf9ae="" id="f34f60b3-6130-42b2-9f11-5655e08108ae" fill="#E2B714" transform="matrix(4.950494706714481,0,0,4.950494706714481,83.57129794039332,-37.029700977484666)"><path d="M3.79 10.07L3.79 10.07Q4.70 10.07 5.21 10.23L5.21 10.23L5.21 10.23Q5.71 10.40 5.92 10.78L5.92 10.78L5.92 10.78Q6.13 11.16 6.13 11.84L6.13 11.84L6.13 17.18L5.75 17.18L5.49 16.48L5.49 16.48Q5.00 16.90 4.39 17.09L4.39 17.09L4.39 17.09Q3.78 17.29 2.94 17.29L2.94 17.29L2.94 17.29Q1.82 17.29 1.36 16.84L1.36 16.84L1.36 16.84Q0.91 16.39 0.91 15.29L0.91 15.29L0.91 15.29Q0.91 14.21 1.16 13.78L1.16 13.78L1.16 13.78Q1.41 13.36 2.23 13.22L2.23 13.22L2.23 13.22Q3.04 13.09 5.10 13.09L5.10 13.09L5.24 13.09L5.24 11.03L5.24 11.03Q4.59 10.84 3.57 10.84L3.57 10.84L3.57 10.84Q2.48 10.84 1.34 11.17L1.34 11.17L1.22 10.46L1.22 10.46Q1.62 10.29 2.37 10.18L2.37 10.18L2.37 10.18Q3.12 10.07 3.79 10.07L3.79 10.07ZM4.06 16.51L4.06 16.51Q4.75 16.51 4.99 16.32L4.99 16.32L4.99 16.32Q5.24 16.13 5.24 15.60L5.24 15.60L5.24 13.83L2.93 13.83L2.93 13.83Q2.23 13.83 1.97 14.02L1.97 14.02L1.97 14.02Q1.72 14.21 1.72 14.73L1.72 14.73L1.72 16.51L4.06 16.51ZM16.09 10.07L16.09 10.07Q18.03 10.07 18.03 11.10L18.03 11.10L18.03 17.18L17.12 17.18L17.12 10.81L15.37 10.81L15.37 10.81Q14.63 10.81 14.33 10.96L14.33 10.96L14.33 10.96Q14.03 11.10 13.97 11.51L13.97 11.51L13.97 17.18L13.06 17.18L13.06 10.81L11.31 10.81L11.31 10.81Q10.74 10.81 10.44 10.89L10.44 10.89L10.44 10.89Q10.15 10.98 10.02 11.17L10.02 11.17L10.02 11.17Q9.90 11.37 9.90 11.76L9.90 11.76L9.90 17.18L8.99 17.18L8.99 10.18L9.37 10.18L9.63 10.88L9.63 10.88Q10.11 10.44 10.68 10.26L10.68 10.26L10.68 10.26Q11.24 10.07 12.03 10.07L12.03 10.07L12.03 10.07Q13.58 10.07 13.89 10.71L13.89 10.71L13.89 10.71Q14.32 10.37 14.85 10.22L14.85 10.22L14.85 10.22Q15.37 10.07 16.09 10.07L16.09 10.07ZM23.00 16.52L23.00 16.52Q23.56 16.52 24.09 16.45L24.09 16.45L24.09 16.45Q24.63 16.38 25.41 16.18L25.41 16.18L25.54 16.90L25.54 16.90Q25.09 17.08 24.33 17.19L24.33 17.19L24.33 17.19Q23.58 17.29 22.76 17.29L22.76 17.29L22.76 17.29Q21.73 17.29 21.24 17.00L21.24 17.00L21.24 17.00Q20.75 16.72 20.57 15.97L20.57 15.97L20.57 15.97Q20.40 15.23 20.40 13.68L20.40 13.68L20.40 13.68Q20.40 12.21 20.62 11.45L20.62 11.45L20.62 11.45Q20.85 10.70 21.41 10.38L21.41 10.38L21.41 10.38Q21.98 10.07 23.09 10.07L23.09 10.07L23.09 10.07Q24.16 10.07 24.72 10.23L24.72 10.23L24.72 10.23Q25.27 10.40 25.49 10.82L25.49 10.82L25.49 10.82Q25.72 11.24 25.72 12.07L25.72 12.07L25.72 12.07Q25.72 13.15 25.45 13.57L25.45 13.57L25.45 13.57Q25.19 14 24.34 14.13L24.34 14.13L24.34 14.13Q23.49 14.27 21.34 14.27L21.34 14.27L21.34 16.32L21.34 16.32Q21.98 16.52 23.00 16.52L23.00 16.52ZM22.55 10.91L22.55 10.91Q21.84 10.91 21.59 11.10L21.59 11.10L21.59 11.10Q21.34 11.28 21.34 11.82L21.34 11.82L21.34 13.52L23.65 13.52L23.65 13.52Q24.37 13.52 24.63 13.34L24.63 13.34L24.63 13.34Q24.89 13.16 24.89 12.63L24.89 12.63L24.89 10.91L22.55 10.91ZM28.31 17.18L28.31 10.18L28.69 10.18L28.95 10.88L28.95 10.88Q29.46 10.46 30.05 10.26L30.05 10.26L30.05 10.26Q30.65 10.07 31.49 10.07L31.49 10.07L31.49 10.07Q33.43 10.07 33.43 11.10L33.43 11.10L33.43 17.18L32.52 17.18L32.52 10.81L30.63 10.81L30.63 10.81Q30.06 10.81 29.76 10.89L29.76 10.89L29.76 10.89Q29.47 10.98 29.34 11.17L29.34 11.17L29.34 11.17Q29.22 11.37 29.22 11.76L29.22 11.76L29.22 17.18L28.31 17.18ZM36.11 17.18L36.11 17.18ZM36.27 10.19L37.18 10.02L37.18 17.18L36.27 17.18L36.27 10.19ZM36.76 8.74L36.76 8.74Q36.37 8.74 36.24 8.61L36.24 8.61L36.24 8.61Q36.11 8.48 36.11 8.12L36.11 8.12L36.11 8.12Q36.11 7.74 36.24 7.61L36.24 7.61L36.24 7.61Q36.37 7.48 36.76 7.48L36.76 7.48L36.76 7.48Q37.13 7.48 37.25 7.61L37.25 7.61L37.25 7.61Q37.38 7.74 37.38 8.12L37.38 8.12L37.38 8.12Q37.38 8.48 37.26 8.61L37.26 8.61L37.26 8.61Q37.14 8.74 36.76 8.74L36.76 8.74ZM42.81 10.85L41.47 10.85L41.47 16.48L41.47 16.48Q42.35 16.53 42.52 16.53L42.52 16.53L42.45 17.16L42.45 17.16Q41.75 17.29 41.33 17.29L41.33 17.29L41.33 17.29Q40.56 17.29 40.56 16.41L40.56 16.41L40.56 10.85L39.48 10.85L39.48 10.18L40.56 10.18L40.56 8.55L41.47 8.32L41.47 10.18L42.81 10.18L42.81 10.85ZM48.48 10.18L49.39 10.18L47.22 16.86L47.22 16.86Q46.87 17.92 46.52 18.51L46.52 18.51L46.52 18.51Q46.17 19.10 45.72 19.35L45.72 19.35L45.72 19.35Q45.28 19.60 44.62 19.60L44.62 19.60L44.62 19.60Q44.00 19.60 43.57 19.47L43.57 19.47L43.60 18.98L44.31 18.89L44.31 18.89Q44.91 18.80 45.23 18.66L45.23 18.66L45.23 18.66Q45.56 18.52 45.76 18.23L45.76 18.23L45.76 18.23Q45.96 17.93 46.14 17.37L46.14 17.37L46.31 16.86L45.82 16.86L43.65 10.18L44.56 10.18L46.45 16.11L46.59 16.11L48.48 10.18Z"></path></g><!----><g data-v-423bf9ae="" id="88eb1944-a980-4d70-9ee5-6ead3034dbbf" transform="matrix(1.0000037299262152,0,0,1.0000037299262152,-15.038184695766539,-4.0003543423555)" stroke="none" fill="#E27F14"><path d="M58.79 24.9l-6.093 2.669c-1.094 1.094-3.491 1.094-4.589 0l-7.685-3.437c-.679 2.666.004 6.756.006 6.756a5.606 5.606 0 0 0-1.842-.863c.762 8.273 5.612 14.651 11.485 14.651 5.97 0 10.881-6.59 11.518-15.06.08-.547.123-1.107.131-1.674l-1.862 2.139c.543-1.203-.225-3.387-1.069-5.181z"></path><path d="M55.036 54.125h19.532c-2.601-5.29-7.821-9.06-13.968-9.622-.034 1.589-2.808 5.81-5.564 9.622zM39.545 44.504c-6.149.562-11.366 4.331-13.972 9.621h19.051c-2.514-3.812-5.045-8.033-5.079-9.621z"></path><circle cx="50" cy="73.043" r="1.735"></circle><path d="M77.413 92.207H22.588a1.397 1.397 0 0 0 0 2.793h54.825a1.397 1.397 0 0 0 0-2.793zM25.758 91.381h48.487a3.264 3.264 0 0 0 3.264-3.265l6.529-30.727a3.265 3.265 0 0 0-3.265-3.265h-6.204c.088.175.173.351.254.528h5.654c1.785 0 3.234 1.431 3.234 3.195L77.18 87.654c0 1.766-1.447 3.197-3.233 3.197H26.053c-1.786 0-3.233-1.433-3.233-3.197l-6.53-29.805c0-1.767 1.447-3.195 3.232-3.195h5.797c.081-.18.168-.354.254-.528h-6.346a3.265 3.265 0 0 0-3.265 3.265l6.529 30.727a3.266 3.266 0 0 0 3.267 3.263z"></path><path d="M44.975 54.653a80.71 80.71 0 0 0-.353-.527H25.573c-.086.175-.173.352-.253.527h19.655z"></path><path d="M55.035 54.126h-3.6l-.181-2.579c1.22-.63 2.165-1.941 2.165-3.274 0 0-1.814.801-3.661.801-1.85 0-3.662-.801-3.662-.801 0 1.333.944 2.644 2.163 3.274l-.181 2.579h-3.455c.117.178.233.354.353.527h29.847a13.46 13.46 0 0 0-.254-.527H55.035zM32.247 14.827l-.092 1.266a1.044 1.044 0 0 0-.142 2.021l-.839 11.757 1.158 3.476 1.158-3.476-.84-11.757c.419-.138.724-.528.724-.993 0-.518-.375-.945-.866-1.028l-.085-1.165 2.009 1.163.081.048 3.804 2.201-.247 3.139a14.4 14.4 0 0 0-1.244 6.82c.024.42.064.837.125 1.248l.03.373c.838 9.47 6.379 16.788 13.092 16.788 6.798 0 12.393-7.507 13.119-17.156a14.881 14.881 0 0 0 0-4.251 14.402 14.402 0 0 0-1.204-4.007l-.246-2.451 3.89-2.251.869-.501 3.619-2.092a.581.581 0 0 0 0-.822L50.875 5.17a.575.575 0 0 0-.817 0l-19.244 8.006a.578.578 0 0 0 0 .822l1.433.829zm29.344 14.79c-.637 8.47-5.548 15.06-11.518 15.06-5.873 0-10.724-6.378-11.485-14.651.517.13 1.15.381 1.842.863-.001 0-.685-4.09-.006-6.756l7.685 3.437c1.098 1.094 3.495 1.094 4.589 0l6.092-2.67c.844 1.794 1.612 3.978 1.069 5.181l1.862-2.139c-.007.567-.05 1.127-.13 1.675z"></path></g><!----><g data-v-423bf9ae="" id="6dbd2889-8691-4507-b683-d87d2e31fdf0" fill="#E2B714" transform="matrix(0.8757525090386651,0,0,0.8757525090386651,87.77849590288679,55.01696923735093)"><path d="M1.55 6.36L0.34 6.18L0.39 5.89L6.58 5.89L6.36 8.09L6.02 8.04L5.88 6.24L2.26 6.24L2.26 10.07L4.53 10.07L4.80 9.11L5.18 9.06L4.97 11.72L4.59 11.77L4.47 10.43L2.26 10.43L2.26 13.92L3.94 14.03L3.86 14.40L0.37 14.40L0.39 14.11L1.55 13.90L1.55 6.36ZM15.07 9.75L15.07 9.75L15.07 9.75Q15.07 11.03 15.44 12.01L15.44 12.01L15.44 12.01Q15.80 13.00 16.52 13.57L16.52 13.57L16.52 13.57Q17.23 14.14 18.21 14.14L18.21 14.14L18.21 14.14Q18.79 14.14 19.28 13.92L19.28 13.92L19.28 13.92Q19.77 13.70 20.11 13.33L20.11 13.33L20.11 13.33Q20.46 12.96 20.70 12.49L20.70 12.49L20.70 12.49Q20.95 12.01 21.06 11.50L21.06 11.50L21.06 11.50Q21.18 10.99 21.18 10.48L21.18 10.48L21.18 10.48Q21.18 8.50 20.33 7.29L20.33 7.29L20.33 7.29Q19.48 6.07 18.03 6.07L18.03 6.07L18.03 6.07Q17.45 6.07 16.95 6.28L16.95 6.28L16.95 6.28Q16.46 6.49 16.12 6.85L16.12 6.85L16.12 6.85Q15.78 7.21 15.54 7.69L15.54 7.69L15.54 7.69Q15.30 8.16 15.19 8.69L15.19 8.69L15.19 8.69Q15.07 9.21 15.07 9.75ZM14.32 10.16L14.32 10.16L14.32 10.16Q14.32 8.16 15.42 6.92L15.42 6.92L15.42 6.92Q16.52 5.69 18.35 5.69L18.35 5.69L18.35 5.69Q19.49 5.69 20.31 6.27L20.31 6.27L20.31 6.27Q21.12 6.86 21.52 7.84L21.52 7.84L21.52 7.84Q21.92 8.83 21.92 10.11L21.92 10.11L21.92 10.11Q21.92 10.75 21.77 11.38L21.77 11.38L21.77 11.38Q21.62 12.00 21.29 12.58L21.29 12.58L21.29 12.58Q20.97 13.17 20.50 13.61L20.50 13.61L20.50 13.61Q20.04 14.05 19.37 14.32L19.37 14.32L19.37 14.32Q18.69 14.58 17.88 14.58L17.88 14.58L17.88 14.58Q16.83 14.58 16.01 13.98L16.01 13.98L16.01 13.98Q15.18 13.37 14.75 12.37L14.75 12.37L14.75 12.37Q14.32 11.37 14.32 10.16ZM31.46 6.18L31.46 10.11L33.01 10.11L33.01 10.11Q33.69 9.86 34.15 9.28L34.15 9.28L34.15 9.28Q34.61 8.70 34.61 8.02L34.61 8.02L34.61 8.02Q34.61 7.11 33.99 6.63L33.99 6.63L33.99 6.63Q33.37 6.15 32.29 6.15L32.29 6.15L31.46 6.18ZM32.83 14.40L29.64 14.40L29.69 14.11L30.75 13.90L30.75 6.51L29.66 6.37L29.72 6.13L29.72 6.13Q31.55 5.83 32.63 5.83L32.63 5.83L32.63 5.83Q33.39 5.83 34.00 6.05L34.00 6.05L34.00 6.05Q34.61 6.27 34.99 6.73L34.99 6.73L34.99 6.73Q35.36 7.19 35.36 7.83L35.36 7.83L35.36 7.83Q35.36 8.57 34.94 9.14L34.94 9.14L34.94 9.14Q34.51 9.72 33.48 10.23L33.48 10.23L33.48 10.23L34.79 12.19L34.79 12.19Q35.51 13.23 35.85 13.58L35.85 13.58L35.85 13.58Q36.20 13.92 36.58 14.05L36.58 14.05L36.91 14.16L36.87 14.42L36.87 14.42Q36.57 14.52 36.23 14.52L36.23 14.52L36.23 14.52Q35.94 14.52 35.69 14.40L35.69 14.40L35.69 14.40Q35.44 14.28 35.19 14.01L35.19 14.01L35.19 14.01Q34.95 13.75 34.77 13.48L34.77 13.48L34.77 13.48Q34.58 13.22 34.31 12.77L34.31 12.77L32.92 10.49L31.46 10.49L31.46 13.95L32.90 14.08L32.83 14.40ZM54.57 8.09L54.50 5.89L61.56 5.89L61.33 8.16L60.98 8.12L60.87 6.24L58.33 6.24L58.33 13.90L59.54 14.08L59.47 14.40L56.37 14.40L56.40 14.11L57.60 13.90L57.60 6.24L55.17 6.24L54.93 8.15L54.57 8.09ZM70.50 6.33L69.27 6.16L69.29 5.89L72.41 5.89L72.37 6.16L71.22 6.32L71.22 9.95L76.13 9.95L76.13 6.33L74.87 6.16L74.92 5.89L78.03 5.89L77.97 6.16L76.83 6.32L76.83 13.95L78.08 14.08L78.03 14.40L74.94 14.40L74.99 14.11L76.13 13.90L76.13 10.36L71.22 10.36L71.22 13.95L72.49 14.08L72.41 14.40L69.32 14.40L69.36 14.11L70.50 13.90L70.50 6.33ZM87.01 6.36L85.79 6.18L85.84 5.89L92.03 5.89L91.82 8.07L91.51 8.03L91.38 6.24L87.73 6.24L87.73 9.89L90.02 9.89L90.27 8.94L90.64 8.89L90.41 11.55L90.06 11.61L89.95 10.26L87.73 10.26L87.73 14.03L91.57 14.03L92.07 12.19L92.35 12.26L92.15 14.40L85.81 14.40L85.85 14.11L87.01 13.90L87.01 6.36ZM109.98 13.60L109.98 13.60L110.19 11.66L110.52 11.71L110.71 13.21L110.71 13.21Q110.93 13.64 111.46 13.89L111.46 13.89L111.46 13.89Q111.99 14.14 112.59 14.14L112.59 14.14L112.59 14.14Q113.28 14.14 113.76 13.74L113.76 13.74L113.76 13.74Q114.24 13.33 114.24 12.61L114.24 12.61L114.24 12.61Q114.24 12.20 114.02 11.83L114.02 11.83L114.02 11.83Q113.80 11.46 113.46 11.18L113.46 11.18L113.46 11.18Q113.11 10.90 112.69 10.63L112.69 10.63L112.69 10.63Q112.27 10.36 111.86 10.07L111.86 10.07L111.86 10.07Q111.44 9.79 111.09 9.48L111.09 9.48L111.09 9.48Q110.75 9.17 110.53 8.75L110.53 8.75L110.53 8.75Q110.32 8.33 110.32 7.84L110.32 7.84L110.32 7.84Q110.32 6.88 111.01 6.29L111.01 6.29L111.01 6.29Q111.71 5.71 112.59 5.71L112.59 5.71L112.59 5.71Q113.18 5.71 113.72 5.90L113.72 5.90L113.72 5.90Q114.26 6.09 114.58 6.46L114.58 6.46L114.36 8.58L114.04 8.53L113.86 6.87L113.86 6.87Q113.67 6.54 113.26 6.32L113.26 6.32L113.26 6.32Q112.84 6.10 112.41 6.10L112.41 6.10L112.41 6.10Q111.82 6.10 111.40 6.48L111.40 6.48L111.40 6.48Q110.99 6.87 110.99 7.52L110.99 7.52L110.99 7.52Q110.99 7.96 111.21 8.35L111.21 8.35L111.21 8.35Q111.43 8.74 111.78 9.03L111.78 9.03L111.78 9.03Q112.14 9.32 112.56 9.61L112.56 9.61L112.56 9.61Q112.98 9.89 113.41 10.17L113.41 10.17L113.41 10.17Q113.84 10.45 114.19 10.75L114.19 10.75L114.19 10.75Q114.54 11.05 114.77 11.45L114.77 11.45L114.77 11.45Q114.99 11.85 114.99 12.29L114.99 12.29L114.99 12.29Q114.99 13.28 114.24 13.93L114.24 13.93L114.24 13.93Q113.48 14.57 112.24 14.57L112.24 14.57L112.24 14.57Q111.53 14.57 110.93 14.30L110.93 14.30L110.93 14.30Q110.33 14.03 109.98 13.60ZM122.77 8.09L122.70 5.89L129.76 5.89L129.52 8.16L129.18 8.12L129.06 6.24L126.53 6.24L126.53 13.90L127.74 14.08L127.66 14.40L124.56 14.40L124.60 14.11L125.79 13.90L125.79 6.24L123.36 6.24L123.12 8.15L122.77 8.09ZM138.68 6.33L137.44 6.16L137.47 5.89L140.57 5.89L140.55 6.16L139.39 6.32L139.39 11.01L139.39 11.01Q139.39 11.87 139.57 12.49L139.57 12.49L139.57 12.49Q139.75 13.10 140.10 13.45L140.10 13.45L140.10 13.45Q140.45 13.79 140.90 13.95L140.90 13.95L140.90 13.95Q141.35 14.11 141.93 14.11L141.93 14.11L141.93 14.11Q143.11 14.11 143.75 13.40L143.75 13.40L143.75 13.40Q144.40 12.68 144.40 11.33L144.40 11.33L144.40 6.33L143.12 6.16L143.16 5.89L146.06 5.89L146.01 6.16L144.87 6.32L144.85 11.05L144.85 11.05Q144.85 12.78 144.11 13.68L144.11 13.68L144.11 13.68Q143.37 14.58 141.71 14.58L141.71 14.58L141.71 14.58Q141.21 14.58 140.79 14.49L140.79 14.49L140.79 14.49Q140.36 14.40 139.97 14.16L139.97 14.16L139.97 14.16Q139.57 13.93 139.29 13.56L139.29 13.56L139.29 13.56Q139.02 13.19 138.85 12.60L138.85 12.60L138.85 12.60Q138.68 12.01 138.68 11.24L138.68 11.24L138.68 6.33ZM155.64 6.19L155.64 14.03L156.87 14.03L156.87 14.03Q158.68 14.03 159.77 12.95L159.77 12.95L159.77 12.95Q160.87 11.87 160.87 10.12L160.87 10.12L160.87 10.12Q160.87 8.20 159.82 7.18L159.82 7.18L159.82 7.18Q158.76 6.16 156.83 6.16L156.83 6.16L156.83 6.16Q155.83 6.16 155.64 6.19L155.64 6.19ZM156.69 14.40L153.74 14.40L153.79 14.11L154.95 13.90L154.95 6.51L153.77 6.36L153.84 6.12L153.84 6.12Q155.93 5.79 157.08 5.79L157.08 5.79L157.08 5.79Q158.05 5.79 158.82 6.03L158.82 6.03L158.82 6.03Q159.60 6.26 160.11 6.66L160.11 6.66L160.11 6.66Q160.62 7.05 160.97 7.59L160.97 7.59L160.97 7.59Q161.31 8.13 161.46 8.71L161.46 8.71L161.46 8.71Q161.61 9.29 161.61 9.92L161.61 9.92L161.61 9.92Q161.61 10.64 161.44 11.28L161.44 11.28L161.44 11.28Q161.27 11.93 160.88 12.50L160.88 12.50L160.88 12.50Q160.50 13.08 159.94 13.49L159.94 13.49L159.94 13.49Q159.37 13.91 158.54 14.15L158.54 14.15L158.54 14.15Q157.71 14.40 156.69 14.40L156.69 14.40ZM170.55 6.36L169.33 6.18L169.37 5.89L175.57 5.89L175.36 8.07L175.04 8.03L174.91 6.24L171.26 6.24L171.26 9.89L173.55 9.89L173.80 8.94L174.17 8.89L173.95 11.55L173.60 11.61L173.49 10.26L171.26 10.26L171.26 14.03L175.10 14.03L175.61 12.19L175.89 12.26L175.68 14.40L169.35 14.40L169.39 14.11L170.55 13.90L170.55 6.36ZM184.84 6.36L183.58 6.14L183.63 5.89L185.71 5.89L190.43 13.17L190.43 6.33L189.18 6.16L189.22 5.89L192.12 5.89L192.06 6.16L190.93 6.32L190.93 14.44L190.56 14.52L185.35 6.65L185.35 13.95L186.61 14.08L186.54 14.40L183.66 14.40L183.70 14.11L184.84 13.90L184.84 6.36ZM199.86 8.09L199.79 5.89L206.86 5.89L206.62 8.16L206.27 8.12L206.16 6.24L203.62 6.24L203.62 13.90L204.83 14.08L204.76 14.40L201.66 14.40L201.69 14.11L202.89 13.90L202.89 6.24L200.46 6.24L200.22 8.15L199.86 8.09ZM214.57 13.60L214.57 13.60L214.78 11.66L215.11 11.71L215.30 13.21L215.30 13.21Q215.52 13.64 216.05 13.89L216.05 13.89L216.05 13.89Q216.58 14.14 217.18 14.14L217.18 14.14L217.18 14.14Q217.87 14.14 218.35 13.74L218.35 13.74L218.35 13.74Q218.83 13.33 218.83 12.61L218.83 12.61L218.83 12.61Q218.83 12.20 218.61 11.83L218.61 11.83L218.61 11.83Q218.39 11.46 218.05 11.18L218.05 11.18L218.05 11.18Q217.70 10.90 217.28 10.63L217.28 10.63L217.28 10.63Q216.86 10.36 216.45 10.07L216.45 10.07L216.45 10.07Q216.03 9.79 215.68 9.48L215.68 9.48L215.68 9.48Q215.34 9.17 215.12 8.75L215.12 8.75L215.12 8.75Q214.91 8.33 214.91 7.84L214.91 7.84L214.91 7.84Q214.91 6.88 215.60 6.29L215.60 6.29L215.60 6.29Q216.30 5.71 217.18 5.71L217.18 5.71L217.18 5.71Q217.77 5.71 218.31 5.90L218.31 5.90L218.31 5.90Q218.85 6.09 219.17 6.46L219.17 6.46L218.95 8.58L218.63 8.53L218.45 6.87L218.45 6.87Q218.26 6.54 217.85 6.32L217.85 6.32L217.85 6.32Q217.43 6.10 217 6.10L217 6.10L217 6.10Q216.41 6.10 215.99 6.48L215.99 6.48L215.99 6.48Q215.58 6.87 215.58 7.52L215.58 7.52L215.58 7.52Q215.58 7.96 215.80 8.35L215.80 8.35L215.80 8.35Q216.02 8.74 216.37 9.03L216.37 9.03L216.37 9.03Q216.73 9.32 217.15 9.61L217.15 9.61L217.15 9.61Q217.57 9.89 218.00 10.17L218.00 10.17L218.00 10.17Q218.43 10.45 218.78 10.75L218.78 10.75L218.78 10.75Q219.13 11.05 219.35 11.45L219.35 11.45L219.35 11.45Q219.58 11.85 219.58 12.29L219.58 12.29L219.58 12.29Q219.58 13.28 218.83 13.93L218.83 13.93L218.83 13.93Q218.07 14.57 216.83 14.57L216.83 14.57L216.83 14.57Q216.12 14.57 215.52 14.30L215.52 14.30L215.52 14.30Q214.92 14.03 214.57 13.60Z"></path></g></svg>